<?xml version="1.0" encoding="utf-8"?>
<!-- Generator: Adobe Illustrator 18.1.1, SVG Export Plug-In . SVG Version: 6.00 Build 0)  -->
<svg version="1.1" id="Calque_1" xmlns="http://www.w3.org/2000/svg" xmlns:xlink="http://www.w3.org/1999/xlink" x="0px" y="0px"
	 viewBox="0 0 1024 768" enable-background="new 0 0 1024 768" xml:space="preserve">
<path fill="#FFFFFF" d="M512.2,2.4c-19.3,0-34.8,15.5-34.8,34.8v312l-312,0c-19.3,0-34.8,15.5-34.8,34.8c0,19.3,15.5,34.8,34.8,34.8
	h312v312c0,19.3,15.5,34.8,34.8,34.8c9.5,0,18.4-3.8,24.6-10c6.2-6.2,10.2-14.9,10-24.6V419h312c9.5,0,18.4-3.8,24.6-10
	c6.4-6.4,10.2-14.9,10-24.6c0-19.3-15.5-34.8-34.8-34.8L547,349.2v-312C547,17.9,531.5,2.4,512.2,2.4z"/>
</svg>
