<?xml version="1.0" encoding="utf-8"?>
<!-- Generator: Adobe Illustrator 18.1.1, SVG Export Plug-In . SVG Version: 6.00 Build 0)  -->
<svg version="1.1" id="Calque_1" xmlns="http://www.w3.org/2000/svg" xmlns:xlink="http://www.w3.org/1999/xlink" x="0px" y="0px"
	 viewBox="0 0 841.9 595.3" enable-background="new 0 0 841.9 595.3" xml:space="preserve">
<g>
	<path fill="#FFFFFF" d="M683.5,513.1l-101.2-27.4l101.2-27.4c2.4-0.6,4.8-2.4,6.5-4.8c1.2-2.4,1.8-5.4,1.2-7.7l-16.1-60.1
		c-1.8-5.4-7.1-8.9-12.5-7.1l-241.7,64.3L180.5,378c-5.4-1.2-11.3,1.8-12.5,7.1l-16.7,60.7c-0.6,2.4-0.6,5.4,1.2,7.7
		c1.8,2.4,3.6,4.2,6.5,4.8l101.2,27.4L159,513.1c-2.4,0.6-4.8,2.4-6.5,4.8c-1.2,2.4-1.8,5.4-1.2,7.7l16.1,60.1
		c1.2,4.8,5.4,7.7,10.1,7.7c0.6,0,1.8,0,3-0.6l240.5-63.7l240.5,64.3c1.2,0,1.8,0.6,3,0.6c4.8,0,8.9-3,10.1-7.7l16.1-60.1
		c0.6-2.4,0.6-5.4-1.2-7.7C687.6,516.1,685.8,513.7,683.5,513.1z M173.9,441.1l10.7-40.5L380.5,453l-80.4,21.4L173.9,441.1z
		 M173.9,530.4l482.8-129.2l10.7,40.5L184.6,570.9L173.9,530.4z M657.3,570.9l-195.8-53l80.4-21.4L668,530.4L657.3,570.9z"/>
	<path fill="#FFFFFF" d="M420.9,407.8c86.3,0,156-70.2,156-156c0-51.8-20.2-104.2-59.5-157.2c-3.6-4.8-10.1-5.4-14.3-2.4
		c-4.8,3.6-5.4,10.1-2.4,14.3c36.9,48.8,55.4,97.6,55.4,144.7c0,75-60.7,135.7-135.1,135.7s-135.1-60.7-135.1-135.7
		c0-36.9,11.9-94.6,70.2-163.1c34.5-41.7,70.8-67.3,70.8-67.9c4.8-3.6,6-10.1,2.4-14.3c-3.6-4.8-10.1-6-14.3-2.4
		c-1.8,1.2-38.1,27.4-75,70.8c-49.4,58.3-75.6,119.7-75.6,177.4C265,337.5,334.6,407.8,420.9,407.8z"/>
	<path fill="#FFFFFF" d="M475.7,76.2c1.8,2.4,4.8,3.6,7.7,3.6c2.4,0,4.8-1.2,7.1-3c4.2-4.2,4.8-10.7,0.6-14.9
		c-7.7-8.3-16.1-17.3-25-25c-4.2-4.2-10.7-3.6-14.9,0.6s-3.6,10.7,0.6,14.9C460.2,60.1,468,67.9,475.7,76.2z"/>
	<path fill="#FFFFFF" d="M415,149.4c-0.6,0.6-20.2,14.3-39.3,37.5c-26.2,30.4-39.9,63.1-39.9,94.1c0,47,38.1,85.1,85.1,85.1
		s85.1-38.1,85.1-85.1c0-6-4.8-10.1-10.1-10.1c-5.4,0-10.1,4.8-10.1,10.1c-0.6,35.1-29.2,64.3-64.9,64.3s-64.3-29.2-64.3-64.3
		c0-51.8,47.6-95.8,64.3-109.5c3.6,3,7.7,6.5,12.5,11.3c4.2,4.2,10.7,3.6,14.9-0.6c4.2-4.2,3.6-10.7-0.6-14.9
		c-11.9-11.3-20.8-17.9-20.8-17.9C423.3,146.4,418.6,146.4,415,149.4z"/>
	<path fill="#FFFFFF" d="M484.6,211.3c-2.4-3.6-4.8-7.7-7.7-11.3c-3.6-4.8-10.1-6-14.3-2.4c-4.8,3.6-6,10.1-2.4,14.3
		c2.4,3.6,4.8,6.5,7.1,10.1c3,4.8,5.4,9.5,7.7,14.3c1.8,3.6,5.4,6,9.5,6c1.8,0,3-0.6,4.8-1.2c5.4-2.4,7.1-8.9,4.8-13.7
		C490.6,222,487.6,216.7,484.6,211.3z"/>
</g>
</svg>
