<?xml version="1.0" encoding="utf-8"?>
<!-- Generator: Adobe Illustrator 18.1.1, SVG Export Plug-In . SVG Version: 6.00 Build 0)  -->
<svg version="1.1" id="Calque_1" xmlns="http://www.w3.org/2000/svg" xmlns:xlink="http://www.w3.org/1999/xlink" x="0px" y="0px"
	 viewBox="0 0 1024 768" enable-background="new 0 0 1024 768" xml:space="preserve">
<g>
	<path fill="#FFFFFF" d="M731.5,59.9c-64.1-43.6-151.5-26.7-194.9,37.6L247.9,523.5c-2.2,3.3-3.3,7.3-3.1,11.2l11.3,201.2
		c0.3,5.8,3.4,10.9,7.9,14.1c4,2.7,9,3.8,13.6,2.9c0.8-0.2,1.6-0.3,2.3-0.6l115.1-38.7c9.6-3.2,14.7-13.6,11.5-23.2
		c-3.2-9.6-13.6-14.7-23.2-11.5l-92.2,31.1l-7.9-140.3l171.8,116.3c4,2.7,9,3.8,13.6,2.9s9-3.7,11.6-7.7l288.5-426.1
		c21.1-31.1,28.7-68.4,21.6-105.3S762.5,80.8,731.5,59.9z M551.8,140l71.6,48.4L360.2,577.3l-71.6-48.4L551.8,140z M460.5,645.2
		l-70-47.4l263.3-389l70,47.4L460.5,645.2z M743.9,225.8L572.7,109.8c15.3-18.6,36.5-31.2,60.5-35.8c27.2-5.2,54.9,0.5,77.9,15.9
		s38.5,39.1,43.7,66.4C759.3,180.5,755.5,204.7,743.9,225.8z"/>
</g>
</svg>
