<?xml version="1.0" encoding="utf-8"?>
<!-- Generator: Adobe Illustrator 18.1.1, SVG Export Plug-In . SVG Version: 6.00 Build 0)  -->
<svg version="1.1" id="Calque_1" xmlns="http://www.w3.org/2000/svg" xmlns:xlink="http://www.w3.org/1999/xlink" x="0px" y="0px"
	 viewBox="0 0 841.9 595.3" enable-background="new 0 0 841.9 595.3" xml:space="preserve">
<g>
	<g>
		<path fill="#FFFFFF" d="M421.5,3C312,3,229.9,85.1,229.9,194.7c0,29.8,3,58.9,13.1,88.7c7.1-1.8,16.1-4.8,21.4-7.7
			c-10.1-27.4-16.1-55.4-16.1-81c0-94.1,78-172,172-172s172,78,172,172c0,46.4-16.1,121.4-89.9,207.2l-16.1,16.1
			c-7.7,4.2-7.7,11.9-4.2,19.6c3.6,7.7-1.8,13.7,6,10.1l29.8-29.8c61.9-78,94.1-151.8,94.1-223.2C612.6,85.1,531.1,3,421.5,3z"/>
	</g>
	<g>
		<path fill="#FFFFFF" d="M332.8,423.8c-25-22-65.5-77.4-78-104.8c6-3,16.1-6,21.4-8.9c11.9,26.8,45.2,72,72,97.6"/>
	</g>
	<ellipse fill="#FFFFFF" cx="453.1" cy="503.6" rx="11.9" ry="11.9"/>
	<ellipse fill="#FFFFFF" cx="397.7" cy="503.6" rx="11.9" ry="11.9"/>
	<ellipse fill="#FFFFFF" cx="327.5" cy="484" rx="11.9" ry="11.9"/>
	<ellipse fill="#FFFFFF" cx="265.6" cy="316.1" rx="11.9" ry="11.9"/>
	<ellipse fill="#FFFFFF" cx="253.7" cy="278.6" rx="11.9" ry="11.9"/>
	<path fill="#FFFFFF" d="M515,389.9l-4.2-113.7c0-7.7-4.2-11.9-11.9-11.9c-4.2,0-7.7,23.8-7.7,31.5l4.2,121.4L515,389.9z"/>
	<path fill="#FFFFFF" d="M589.4,257.8l-66.1-93.5c-4.2-4.2,0-7.7-7.7-4.2c-4.2,4.2,4.2,35.7,4.2,39.3l66.1,89.9L589.4,257.8z"/>
	<path fill="#FFFFFF" d="M581.1,128.6L471.5,85.1c-7.7-4.2-11.9,0-16.1,4.2c-4.2,7.7,27.4,23.8,35.7,23.8l105.4,43.5L581.1,128.6z"
		/>
	<path fill="#FFFFFF" d="M448.9,19l-94.6,78.6c0,0,13.1-4.8,16.7-1.2c3.6,3.6,31.5-11.9,35.7-16.1l64.3-56.6L448.9,19z"/>
	<path fill="#FFFFFF" d="M531.1,507.8L465,500c-4.2,0-4.2,0,0,7.7c4.2,7.7,4.2,16.1,7.7,16.1l66.1,7.7L531.1,507.8z"/>
	<path fill="#FFFFFF" d="M347.1,550l-7.7-58.3c0-4.2-4.2-11.9-11.9-11.9c-4.2,0-7.7,4.2-7.7,7.7l10.1,70.8L347.1,550z"/>
	<path fill="#FFFFFF" d="M253.7,230.4l82.1,54.2c4.2,4.2,7.7,7.7,11.9,4.2c4.2-4.2-7.7-27.4-11.9-31.5l-94.1-58.3L253.7,230.4z"/>
	<path fill="#FFFFFF" d="M293,352.4l128.6,37.5c4.2,4.2-4.2-7.7,0-11.9c4.2-4.2-23.8-11.9-27.4-16.1l-109.5-35.7L293,352.4z"/>
	<path fill="#FFFFFF" d="M288.2,85.1l27.4,78c0,4.2,7.7,4.2,11.9,0c4.2,0,4.2-19.6,4.2-23.8l-28.6-76.8L288.2,85.1z"/>
	<path fill="#FFFFFF" d="M361.4,419.7L361.4,419.7l-20.8-17.9c-4.2-4.2-11.9-3-16.1,1.2c-4.2,4.2-3,11.9,1.2,16.1l20.8,17.9
		l-7.1,11.9l-31.5,41.7c-4.2,4.2-3,11.9,1.2,16.1c4.2,4.2,11.9,3,16.1-1.2l38.7-54.2C375.1,438.1,373.9,426.8,361.4,419.7z"/>
	<path fill="#FFFFFF" d="M421.5,70.2L421.5,70.2L421.5,70.2c-58.3,0-109.5,58.3-109.5,125.6c0,46.4,16.1,94.1,50.6,136.9
		c23.8,35.7,50.6,54.2,50.6,54.2c4.2,4.2,4.2,4.2,7.7,4.2c3.6,0,4.2,0,7.7-4.2c0,0,27.4-19.6,50.6-54.2
		c31.5-46.4,50.6-94.1,50.6-136.9C531.1,128.6,479.9,70.2,421.5,70.2z M468,316.1c-19.6,27.4-39.3,46.4-39.3,46.4
		c-3,4.2-3,4.2-7.1,4.2c-4.2,0-4.2,0-7.7-4.2c0,0-19.6-19.6-43.5-46.4c-27.4-39.3-43.5-78-43.5-117.3c0-58.3,39.3-105.4,89.9-105.4
		l0,0l0,0c50.6,0,89.9,46.4,89.9,105.4C511.4,238.1,499.5,276.8,468,316.1z"/>
	<path fill="#FFFFFF" d="M519.2,503.6c7.7,7.7,16.1,23.8,19.6,31.5l11.9,31.5l-31.5-13.1c-7.7-4.2-23.8-11.9-31.5-19.6l-26.8-34.5
		l-20.8,8.9l36.3,42.3c7.7,7.7,27.4,19.6,39.3,23.8l35.7,16.1c11.9,4.2,16.1,0,19.6,0c4.2-4.2,7.7-7.7,7.7-16.1
		c0-4.2,0-7.7-4.2-11.9l-16.1-35.7c-4.2-11.9-16.1-27.4-23.8-39.3l-42.3-43.5l-7.7,23.8L519.2,503.6z"/>
	<path fill="#FFFFFF" d="M319.7,475.6c-7.7,7.7-31.5,39.3-35.7,50.6L268,561.9c-4.2,11.9,0,16.1,0,19.6c4.2,4.2,8.3,7.7,16.1,7.7
		c4.2,0,7.7,0,11.9-4.2l35.7-16.1c11.9-4.2,27.4-16.1,39.3-23.8l39.3-39.3l-16.1-16.1l-38.7,40.5c-7.7,7.7-23.8,19.6-31.5,23.8
		l-31.5,11.9l11.9-31.5c4.2-7.7,23.8-31.5,31.5-39.3L319.7,475.6z"/>
	<path fill="#FFFFFF" d="M422.1,368.5c-40.5,0-73.2,32.7-73.2,73.2s32.7,73.2,73.2,73.2s73.2-32.7,73.2-73.2
		S462.6,368.5,422.1,368.5z M422.1,491.7c-27.4,0-50.6-22.6-50.6-50.6c0-28,22.6-50.6,50.6-50.6c28,0,50.6,22.6,50.6,50.6
		C472.7,469.1,450.1,491.7,422.1,491.7z"/>
	<path fill="#FFFFFF" d="M426.3,445.3c-1.2,1.2-1.8,1.2-4.2,1.2c-3,0-6-3-6-6c0-1.8,1.2-3,1.2-4.2c4.2-4.8,4.2-11.9-1.2-16.1
		c-4.8-4.2-11.9-4.2-16.1,1.2c-4.8,4.8-7.1,11.9-7.1,19c0,16.1,13.1,27.4,27.4,27.4c7.1,0,13.7-3,19-7.1c4.8-4.2,4.8-10.7,1.2-16.1
		C438.2,442.3,431.1,441.1,426.3,445.3z"/>
</g>
</svg>
