<?xml version="1.0" encoding="utf-8"?>
<!-- Generator: Adobe Illustrator 18.1.1, SVG Export Plug-In . SVG Version: 6.00 Build 0)  -->
<svg version="1.1" id="Calque_1" xmlns="http://www.w3.org/2000/svg" xmlns:xlink="http://www.w3.org/1999/xlink" x="0px" y="0px"
	 viewBox="0 0 60 60" enable-background="new 0 0 60 60" xml:space="preserve">
<g>
	<g>
		<path d="M30,59.3c16.2,0,29.3-13.1,29.3-29.3C59.3,13.8,46.1,0.7,30,0.7S0.7,13.8,0.7,30C0.7,46.1,13.8,59.3,30,59.3z M30,4.8
			c13.9,0,25.2,11.3,25.2,25.2S43.9,55.2,30,55.2S4.8,43.8,4.8,30C4.8,16.1,16.1,4.8,30,4.8z"/>
		<path d="M28.6,33.4h9.8c1.2,0,2.1-0.9,2.1-2.1c0-1.2-0.9-2.1-2.1-2.1h-7.7v-12c0-1.2-0.9-2.1-2.1-2.1c-1.2,0-2.1,0.9-2.1,2.1v14.1
			C26.6,32.5,27.5,33.4,28.6,33.4z"/>
	</g>
</g>
</svg>
