<?xml version="1.0" encoding="utf-8"?>
<!-- Generator: Adobe Illustrator 18.1.1, SVG Export Plug-In . SVG Version: 6.00 Build 0)  -->
<svg version="1.1" id="Calque_1" xmlns="http://www.w3.org/2000/svg" xmlns:xlink="http://www.w3.org/1999/xlink" x="0px" y="0px"
	 viewBox="0 0 60 60" enable-background="new 0 0 60 60" xml:space="preserve">
<g>
	<g>
		<path d="M30,0.3C17,0.3,6.4,11,6.4,24c0,1.6,0.2,3.2,0.5,4.7c0,0.1,0.1,0.2,0.1,0.4c2.6,11.7,20.9,29.3,21.7,30
			c0.4,0.4,0.9,0.6,1.4,0.6s1-0.2,1.4-0.6c0.8-0.8,19-18.3,21.6-29.7c0-0.1,0.1-0.2,0.1-0.3c0.4-1.6,0.5-3.3,0.5-5
			C53.7,11,43,0.3,30,0.3L30,0.3z M49,28.3c0,0.1,0,0.1,0,0.2c-1.9,8.5-14.7,21.9-19,26.2C25.7,50.3,12.9,36.9,11,28.2
			c0-0.1,0-0.2-0.1-0.3c-0.3-1.3-0.4-2.7-0.4-4c0-10.7,8.7-19.5,19.5-19.5S49.5,13.2,49.5,24C49.5,25.5,49.3,26.9,49,28.3L49,28.3z"
			/>
		<path d="M30,11.2c-5.8,0-10.4,4.7-10.4,10.4S24.3,32,30,32s10.4-4.6,10.4-10.4S35.8,11.2,30,11.2z M30,26.5c-2.7,0-5-2.2-5-5
			s2.2-5,5-5s5,2.2,5,5S32.8,26.5,30,26.5z"/>
	</g>
</g>
</svg>
