<?xml version="1.0" encoding="utf-8"?>
<!-- Generator: Adobe Illustrator 18.1.1, SVG Export Plug-In . SVG Version: 6.00 Build 0)  -->
<svg version="1.1" id="Calque_1" xmlns="http://www.w3.org/2000/svg" xmlns:xlink="http://www.w3.org/1999/xlink" x="0px" y="0px"
	 viewBox="0 0 841.9 595.3" enable-background="new 0 0 841.9 595.3" xml:space="preserve">
<g>
	<path fill="#FFFFFF" d="M524.6,337.6c2.1,2.8,6.3,5,9.9,5c2.8,0,5-0.7,7.1-2.8c5.6-4.3,6.3-12,2.1-16.9l-41.7-55.1
		c-4.3-5.6-12-6.3-16.9-2.1c-5.6,4.3-6.3,12-2.1,16.9L524.6,337.6z"/>
	<path fill="#FFFFFF" d="M760.2,499.9h-9.1v-36.7c0-7.1-5.6-12-12-12s-12,5.6-12,12v19.7L438.5,104.1l17.7-23.3
		c4.3-5.6,2.8-12.7-2.1-16.9c-5.6-4.3-12.7-2.8-16.9,2.1l-13.4,17.7l-15.5-20.5c-4.3-5.6-12-6.3-16.9-2.1c-5.6,4.3-6.3,12-2.1,16.9
		l19.7,26.1L117.5,486.5v-22.6c0-7.1-5.6-12-12-12c-6.3,0-12,5-12,11.3v36.7h-12c-7.1,0-12,5.6-12,12c0,6.4,5.6,12,12,12h679.4
		c7.1,0,12-5.6,12-12C772.8,505.4,767.3,499.9,760.2,499.9z M709.5,499.9h-31.1L578.2,368.7c-4.3-5.6-12-6.3-16.9-2.1
		c-5.6,4.3-6.3,12-2.1,16.9L648,500.5H435.1V219.7l16.2,21.2c2.1,2.8,6.3,5,9.9,5c2.8,0,5-0.7,7.1-2.8c5.6-4.3,6.3-12,2.1-16.9
		L432.2,176l0,0c0,0,0-0.7-0.7-0.7c0,0,0,0-0.7-0.7c0,0,0,0-0.7-0.7c0,0-0.7,0-0.7-0.7l0,0l0,0c0,0-0.7,0-0.7-0.7l0,0h-0.7
		c0,0,0,0-0.7,0h-0.7h-0.7c0,0,0,0-0.7,0h-0.7c0,0,0,0-0.7,0h-0.7c0,0,0,0-0.7,0h-0.7h-0.7h-0.7h-0.7c0,0,0,0-0.7,0h-0.7
		c0,0,0,0-0.7,0h-0.7c0,0,0,0-0.7,0H416h-0.7c0,0,0,0-0.7,0h-1.6c0,0,0,0-0.7,0c0,0-0.7,0-0.7,0.7l0,0l0,0c0,0-0.7,0-0.7,0.7
		c0,0,0,0-0.7,0.7c0,0,0,0-0.7,0.7c0,0,0,0.7-0.7,0.7l0,0L167,499.9H138l285.7-375.4L709.5,499.9z M410.3,499.9h-213l213-280V499.9z
		"/>
</g>
</svg>
