<?xml version="1.0" encoding="utf-8"?>
<!-- Generator: Adobe Illustrator 18.1.1, SVG Export Plug-In . SVG Version: 6.00 Build 0)  -->
<svg version="1.1" id="Capa_1" xmlns="http://www.w3.org/2000/svg" xmlns:xlink="http://www.w3.org/1999/xlink" x="0px" y="0px"
	 viewBox="0 0 100 100" enable-background="new 0 0 100 100" xml:space="preserve">
<g>
	<path d="M43.1,52.5h13.8c3.1,0,5.6-2.5,5.6-5v-2.8c0-3.1-2.5-5.6-5.6-5.6H43.1c-3.1,0-5.6,2.5-5.6,5.6v2.8
		C37.5,50,40,52.5,43.1,52.5z M41.3,44.7c0-1.3,0.6-1.9,1.9-1.9h13.8c1.2,0,1.9,0.6,1.9,1.9v2.8c0,1.3-0.6,1.9-1.9,1.9H43.1
		c-1.3,0-1.9-0.6-1.9-1.9V44.7z"/>
	<path d="M76.3,56.3H23.8c-1.9,0-3.8,1.3-3.8,3.1v30c0,1.9,1.9,3.8,3.8,3.8h52.5c1.9,0,3.8-1.9,3.8-3.8v-30
		C80,57.5,78.1,56.3,76.3,56.3z M23.8,89.4v-30h52.5v30H23.8z"/>
	<path d="M90.6,56.3h-3.8V21.9c1.3-1.9,1.9-3.8,1.9-5.6V6.9c0-3.8-3.1-6.9-6.9-6.9H18.1c-3.8,0-6.9,3.1-6.9,6.9v8.8
		c0,1.9,0.6,4.4,1.9,5.6v35H9.4c-1.9,0-3.1,1.3-3.1,3.1v30c0,1.9,1.9,3.8,3.8,3.8h3.8c0,3.8,3.1,6.9,6.9,6.9H80
		c3.8,0,6.9-3.1,6.9-6.9h3.8c1.9,0,3.8-1.9,3.8-3.8v-30C93.8,57.5,92.5,56.3,90.6,56.3z M90.6,59.4v5h-3.8v-5H90.6z M15,6.9
		c0-1.9,1.9-3.8,3.7-3.8h63.1c1.9,0,3.8,1.9,3.8,3.8v8.8c0,3.8-3.1,6.9-6.9,6.9h-1.9v-5c0-1.3-0.6-1.9-1.9-1.9h-6.9
		c-1.3,0-1.9,0.6-1.9,1.9v5H34.4v-5c0-1.3-0.6-1.9-1.9-1.9h-6.9c-1.3,0-1.9,0.6-1.9,1.9v5h-1.9c-3.8,0-6.9-3.1-6.9-6.9V6.9z
		 M69.4,33.1h3.8v3.8h-3.8V33.1z M69.4,30v-3.8h3.8V30C73.1,30,69.4,30,69.4,30z M69.4,22.5v-3.1h3.8v3.7h-3.8V22.5z M27.5,33.1h3.8
		v3.8h-3.8V33.1z M27.5,30v-3.8h3.8V30C31.3,30,27.5,30,27.5,30z M27.5,22.5v-3.1h3.8v3.7h-3.8V22.5z M13.1,59.4v5H9.4v-5H13.1z
		 M9.4,89.4V68.1h3.7v21.2C13.1,89.4,9.4,89.4,9.4,89.4z M83.1,93.1c0,1.9-1.9,3.8-3.8,3.8H20c-1.9,0-3.8-1.9-3.8-3.8V25
		c1.3,0.6,3.1,1.2,5,1.2h1.9V30c-1.3,0-1.9,0.6-1.9,1.9c0,1.3,0.6,1.9,1.9,1.9v5c0,1.3,0.6,1.9,1.9,1.9h6.9c1.3,0,1.9-0.6,1.9-1.9
		v-5.6c1.3,0,1.9-0.6,1.9-1.9c0-1.2-0.6-1.9-1.9-1.9v-3.1h31.9V30c-1.3,0-1.9,0.6-1.9,1.9c0,1.3,0.6,1.9,1.9,1.9v5
		c0,1.3,0.6,1.9,1.9,1.9h6.9c1.3,0,1.9-0.6,1.9-1.9v-5.6c1.2,0,1.9-0.6,1.9-1.9c0-1.2-0.6-1.9-1.9-1.9v-3.1h1.9c1.9,0,3.8-0.6,5-1.3
		C83.1,25,83.1,93.1,83.1,93.1z M86.9,89.4V68.1h3.8v21.2C90.6,89.4,86.9,89.4,86.9,89.4z"/>
	<path d="M70,68.8h1.2c1.3,0,1.9-0.6,1.9-1.9c0-1.8-1.3-1.9-2.5-1.9H29.4c-1.2,0-1.9,0.6-1.9,1.9s0.6,1.9,1.9,1.9h36.9H70z"/>
	<path d="M60.3,77.2h1.3c1.2,0,1.9-0.6,1.9-1.9c0-1.8-1.3-1.9-2.5-1.9H39.1c-1.3,0-1.9,0.6-1.9,1.9s0.6,1.9,1.9,1.9h17.4H60.3z"/>
</g>
</svg>
