<?xml version="1.0" encoding="utf-8"?>
<!-- Generator: Adobe Illustrator 18.1.1, SVG Export Plug-In . SVG Version: 6.00 Build 0)  -->
<svg version="1.1" id="Capa_1" xmlns="http://www.w3.org/2000/svg" xmlns:xlink="http://www.w3.org/1999/xlink" x="0px" y="0px"
	 viewBox="0 0 16 16" enable-background="new 0 0 16 16" xml:space="preserve">
<g>
	<path d="M6.9,8.4h2.2C9.6,8.4,10,8,10,7.6V6.5C10,6,9.6,5.6,9.1,5.6H6.9C6.4,5.6,6,6,6,6.5v1.1C6,8,6.4,8.4,6.9,8.4z M6.6,6.5
		c0-0.2,0.1-0.3,0.3-0.3h2.2c0.2,0,0.3,0.1,0.3,0.3v1.1c0,0.2-0.1,0.3-0.3,0.3H6.9c-0.2,0-0.3-0.1-0.3-0.3V6.5z"/>
	<path d="M7.2,7h1.7C9,7,9.1,6.9,9.1,6.7S9,6.5,8.8,6.5H7.2C7,6.5,6.9,6.6,6.9,6.7S7,7,7.2,7z"/>
	<path d="M12.2,9H3.8C3.5,9,3.2,9.2,3.2,9.5v4.8c0,0.3,0.3,0.6,0.6,0.6h8.4c0.3,0,0.6-0.3,0.6-0.6V9.5C12.8,9.2,12.5,9,12.2,9z
		 M3.8,14.3V9.5h8.4l0,4.8H3.8z"/>
	<path d="M14.5,9h-0.6V3.5c0.2-0.3,0.3-0.6,0.3-0.9V1.1c0-0.6-0.5-1.1-1.1-1.1H2.9C2.3,0,1.8,0.5,1.8,1.1v1.4c0,0.3,0.1,0.7,0.3,0.9
		V9H1.5C1.2,9,1,9.2,1,9.5v4.8c0,0.3,0.3,0.6,0.6,0.6h0.6c0,0.6,0.5,1.1,1.1,1.1h9.5c0.6,0,1.1-0.5,1.1-1.1h0.6
		c0.3,0,0.6-0.3,0.6-0.6V9.5C15,9.2,14.8,9,14.5,9z M14.5,9.5v0.8h-0.6V9.5H14.5z M2.4,1.1c0-0.3,0.3-0.6,0.6-0.6h10.1
		c0.3,0,0.6,0.3,0.6,0.6v1.4c0,0.6-0.5,1.1-1.1,1.1h-0.3V2.8c0-0.2-0.1-0.3-0.3-0.3h-1.1c-0.2,0-0.3,0.1-0.3,0.3v0.8H5.5V2.8
		c0-0.2-0.1-0.3-0.3-0.3H4.1c-0.2,0-0.3,0.1-0.3,0.3v0.8H3.5c-0.6,0-1.1-0.5-1.1-1.1V1.1z M11.1,5.3h0.6v0.6h-0.6V5.3z M11.1,4.8
		V4.2h0.6v0.6H11.1z M11.1,3.6V3.1h0.6v0.6H11.1z M4.4,5.3h0.6v0.6H4.4V5.3z M4.4,4.8V4.2h0.6v0.6H4.4z M4.4,3.6V3.1h0.6v0.6H4.4z
		 M2.1,9.5v0.8H1.5V9.5H2.1z M1.5,14.3v-3.4h0.6v3.4H1.5z M13.3,14.9c0,0.3-0.3,0.6-0.6,0.6H3.2c-0.3,0-0.6-0.3-0.6-0.6V4
		c0.2,0.1,0.5,0.2,0.8,0.2h0.3v0.6c-0.2,0-0.3,0.1-0.3,0.3c0,0.2,0.1,0.3,0.3,0.3v0.8c0,0.2,0.1,0.3,0.3,0.3h1.1
		c0.2,0,0.3-0.1,0.3-0.3V5.3c0.2,0,0.3-0.1,0.3-0.3c0-0.2-0.1-0.3-0.3-0.3V4.2h5.1v0.6c-0.2,0-0.3,0.1-0.3,0.3
		c0,0.2,0.1,0.3,0.3,0.3v0.8c0,0.2,0.1,0.3,0.3,0.3h1.1c0.2,0,0.3-0.1,0.3-0.3V5.3c0.2,0,0.3-0.1,0.3-0.3c0-0.2-0.1-0.3-0.3-0.3V4.2
		h0.3c0.3,0,0.6-0.1,0.8-0.2V14.9z M13.9,14.3v-3.4h0.6v3.4H13.9z"/>
	<path d="M11.3,10.4H4.7c-0.2,0-0.3,0.1-0.3,0.3c0,0.2,0.1,0.3,0.3,0.3h5.9v0.3c0,0.2,0.1,0.3,0.3,0.3c0.2,0,0.3-0.1,0.3-0.3v-0.3
		h0.2c0.2,0,0.3-0.1,0.3-0.3C11.6,10.5,11.5,10.4,11.3,10.4z"/>
</g>
</svg>
