<?xml version="1.0" encoding="utf-8"?>
<!-- Generator: Adobe Illustrator 18.1.1, SVG Export Plug-In . SVG Version: 6.00 Build 0)  -->
<svg version="1.1" id="Capa_1" xmlns="http://www.w3.org/2000/svg" xmlns:xlink="http://www.w3.org/1999/xlink" x="0px" y="0px"
	 viewBox="0 0 100 100" enable-background="new 0 0 100 100" xml:space="preserve">
<g>
	<path fill="#2B3E50" d="M82.3,71.8l-12.5-3.3l12.5-3.3c0.3-0.2,0.7-0.3,0.8-0.7s0.2-0.7,0.2-1l-2-7.5c-0.2-0.7-0.8-1.2-1.5-0.8
		l-29.8,8l-29.7-8C19.7,55,19,55.3,18.8,56l-2.2,7.5c-0.2,0.3,0,0.7,0.2,1c0.2,0.3,0.5,0.5,0.8,0.7l12.5,3.3l-12.5,3.3
		c-0.3,0.2-0.7,0.3-0.8,0.7c-0.2,0.2-0.2,0.5-0.2,0.8l2,7.5c0.2,0.5,0.7,1,1.2,1c0.2,0,0.2,0,0.3,0l29.8-8l29.7,7.8
		c0.2,0,0.2,0,0.3,0c0.5,0,1.2-0.3,1.2-1l2.2-7.3c0.2-0.3,0-0.7-0.2-1C83,72.2,82.7,71.8,82.3,71.8z M19.5,63l1.3-5L45,64.5l-10,2.7
		L19.5,63z M19.5,74L79,58l1.3,5L20.8,79L19.5,74z M79.2,78.8L55,72.5l10-2.7L80.5,74L79.2,78.8z"/>
	<path fill="#2B3E50" d="M50,58.8c10.7,0,19.3-8.7,19.3-19.3c0-6.3-2.5-12.8-7.3-19.3c-0.5-0.5-1.2-0.7-1.8-0.3
		c-0.5,0.5-0.7,1.2-0.3,1.8c4.5,6,6.8,12,6.8,17.8c0,9.2-7.5,16.7-16.7,16.7s-16.7-7.5-16.7-16.7c0-4.5,1.5-11.7,8.7-20.2
		c4.3-5.2,8.8-8.3,8.8-8.3c0.5-0.3,0.7-1.2,0.3-1.8c-0.3-0.5-1.2-0.7-1.8-0.3c-0.2,0.2-4.7,3.3-9.2,8.7c-6.2,7.2-9.3,14.7-9.3,21.8
		C30.7,50.2,39.3,58.8,50,58.8z"/>
	<path fill="#2B3E50" d="M56.8,17.8c0.3,0.3,0.7,0.5,1,0.5c0.3,0,0.7-0.2,0.8-0.3c0.5-0.5,0.5-1.3,0.2-1.8c-1-1-2-2.2-3-3.2
		c-0.5-0.5-1.3-0.5-1.8,0c-0.5,0.5-0.5,1.3,0,1.8C54.8,15.8,55.8,16.8,56.8,17.8z"/>
	<path fill="#2B3E50" d="M49.3,26.8c-0.2,0-2.5,1.8-4.8,4.7c-3.2,3.8-5,7.8-5,11.7c0,5.8,4.7,10.5,10.5,10.5S60.5,49,60.5,43.2
		c0-0.7-0.5-1.3-1.3-1.3c-0.7,0-1.3,0.5-1.3,1.3c0,4.3-3.5,8-8,8s-8-3.5-8-8c0-6.3,5.8-11.8,8-13.5c0.3,0.3,1,0.8,1.5,1.3
		c0.5,0.5,1.3,0.5,1.8,0s0.5-1.3,0-1.8c-1.5-1.3-2.5-2.2-2.7-2.2C50.3,26.7,49.7,26.7,49.3,26.8z"/>
	<path fill="#2B3E50" d="M57.8,34.5c-0.3-0.5-0.7-1-1-1.5c-0.3-0.5-1.2-0.7-1.8-0.3c-0.5,0.3-0.7,1.2-0.3,1.8
		c0.3,0.5,0.7,0.8,0.8,1.3c0.3,0.5,0.7,1.2,1,1.7c0.2,0.5,0.7,0.7,1.2,0.7c0.2,0,0.3,0,0.5-0.2c0.7-0.3,0.8-1,0.7-1.7
		C58.7,35.8,58.2,35.2,57.8,34.5z"/>
</g>
<path fill="#2B3E50" d="M-16-6.3v120h143.3v-120H-16z M50,98.8C23,98.8,1.2,77,1.2,50S23,1.2,50,1.2S98.8,23,98.8,50
	S77,98.8,50,98.8z"/>
</svg>
