<?xml version="1.0" encoding="utf-8"?>
<!-- Generator: Adobe Illustrator 18.1.1, SVG Export Plug-In . SVG Version: 6.00 Build 0)  -->
<svg version="1.1" id="Capa_1" xmlns="http://www.w3.org/2000/svg" xmlns:xlink="http://www.w3.org/1999/xlink" x="0px" y="0px"
	 viewBox="0 0 60 60" enable-background="new 0 0 60 60" xml:space="preserve">
<g>
	<path fill="#2B3E50" d="M49.4,43.1l-7.5-2l7.5-2c0.2-0.1,0.4-0.2,0.5-0.4c0.1-0.2,0.1-0.4,0.1-0.6l-1.2-4.5
		c-0.1-0.4-0.5-0.7-0.9-0.5L30,37.9l-17.8-4.8c-0.4-0.1-0.8,0.1-0.9,0.5L10,38.1c-0.1,0.2,0,0.4,0.1,0.6c0.1,0.2,0.3,0.3,0.5,0.4
		l7.5,2l-7.5,2c-0.2,0.1-0.4,0.2-0.5,0.4C10,43.6,10,43.8,10,44l1.2,4.5c0.1,0.3,0.4,0.6,0.7,0.6c0.1,0,0.1,0,0.2,0L30,44.3L47.8,49
		c0.1,0,0.1,0,0.2,0c0.3,0,0.7-0.2,0.7-0.6L50,44c0.1-0.2,0-0.4-0.1-0.6C49.8,43.3,49.6,43.1,49.4,43.1z M11.7,37.8l0.8-3L27,38.7
		l-6,1.6L11.7,37.8z M11.7,44.4l35.7-9.6l0.8,3l-35.7,9.6L11.7,44.4z M47.5,47.3L33,43.5l6-1.6l9.3,2.5L47.5,47.3z"/>
	<path fill="#2B3E50" d="M30,35.3c6.4,0,11.6-5.2,11.6-11.6c0-3.8-1.5-7.7-4.4-11.6c-0.3-0.3-0.7-0.4-1.1-0.2
		c-0.3,0.3-0.4,0.7-0.2,1.1c2.7,3.6,4.1,7.2,4.1,10.7c0,5.5-4.5,10-10,10s-10-4.5-10-10c0-2.7,0.9-7,5.2-12.1c2.6-3.1,5.3-5,5.3-5
		c0.3-0.2,0.4-0.7,0.2-1.1c-0.2-0.3-0.7-0.4-1.1-0.2c-0.1,0.1-2.8,2-5.5,5.2c-3.7,4.3-5.6,8.8-5.6,13.1C18.4,30.1,23.6,35.3,30,35.3
		z"/>
	<path fill="#2B3E50" d="M34.1,10.7c0.2,0.2,0.4,0.3,0.6,0.3c0.2,0,0.4-0.1,0.5-0.2c0.3-0.3,0.3-0.8,0.1-1.1
		c-0.6-0.6-1.2-1.3-1.8-1.9c-0.3-0.3-0.8-0.3-1.1,0c-0.3,0.3-0.3,0.8,0,1.1C32.9,9.5,33.5,10.1,34.1,10.7z"/>
	<path fill="#2B3E50" d="M29.6,16.1c-0.1,0-1.5,1.1-2.9,2.8c-1.9,2.3-3,4.7-3,7c0,3.5,2.8,6.3,6.3,6.3s6.3-2.8,6.3-6.3
		c0-0.4-0.3-0.8-0.8-0.8c-0.4,0-0.8,0.3-0.8,0.8c0,2.6-2.1,4.8-4.8,4.8s-4.8-2.1-4.8-4.8c0-3.8,3.5-7.1,4.8-8.1
		c0.2,0.2,0.6,0.5,0.9,0.8c0.3,0.3,0.8,0.3,1.1,0c0.3-0.3,0.3-0.8,0-1.1c-0.9-0.8-1.5-1.3-1.6-1.3C30.2,16,29.8,16,29.6,16.1z"/>
	<path fill="#2B3E50" d="M34.7,20.7c-0.2-0.3-0.4-0.6-0.6-0.9c-0.2-0.3-0.7-0.4-1.1-0.2c-0.3,0.2-0.4,0.7-0.2,1.1
		c0.2,0.3,0.4,0.5,0.5,0.8c0.2,0.3,0.4,0.7,0.6,1c0.1,0.3,0.4,0.4,0.7,0.4c0.1,0,0.2,0,0.3-0.1c0.4-0.2,0.5-0.6,0.4-1
		C35.2,21.5,34.9,21.1,34.7,20.7z"/>
</g>
<circle fill="none" stroke="#2B3E50" stroke-miterlimit="10" cx="30" cy="30" r="29.3"/>
</svg>
