<?xml version="1.0" encoding="utf-8"?>
<!-- Generator: Adobe Illustrator 18.1.1, SVG Export Plug-In . SVG Version: 6.00 Build 0)  -->
<svg version="1.1" id="Calque_1" xmlns="http://www.w3.org/2000/svg" xmlns:xlink="http://www.w3.org/1999/xlink" x="0px" y="0px"
	 viewBox="0 0 100 100" enable-background="new 0 0 100 100" xml:space="preserve">
<g>
	<path fill="#2B3E50" d="M94.1,86.2l-17-4.6l17-4.6c0.4-0.1,0.8-0.4,1.1-0.8c0.2-0.4,0.3-0.9,0.2-1.3l-2.7-10.1
		c-0.3-0.9-1.2-1.5-2.1-1.2L50,74.4L9.6,63.5c-0.9-0.2-1.9,0.3-2.1,1.2L4.7,74.9c-0.1,0.4-0.1,0.9,0.2,1.3s0.6,0.7,1.1,0.8l17,4.6
		l-17,4.6c-0.4,0.1-0.8,0.4-1.1,0.8c-0.2,0.4-0.3,0.9-0.2,1.3l2.7,10.1c0.2,0.8,0.9,1.3,1.7,1.3c0.1,0,0.3,0,0.5-0.1L50,88.9
		l40.4,10.8c0.2,0,0.3,0.1,0.5,0.1c0.8,0,1.5-0.5,1.7-1.3l2.7-10.1c0.1-0.4,0.1-0.9-0.2-1.3S94.5,86.3,94.1,86.2z M8.5,74.1l1.8-6.8
		l32.9,8.8l-13.5,3.6L8.5,74.1z M8.5,89.1l81.1-21.7l1.8,6.8L10.3,95.9L8.5,89.1z M89.7,95.9L56.8,87l13.5-3.6l21.2,5.7L89.7,95.9z"
		/>
	<path fill="#2B3E50" d="M50,68.5c14.5,0,26.2-11.8,26.2-26.2c0-8.7-3.4-17.5-10-26.4c-0.6-0.8-1.7-0.9-2.4-0.4
		c-0.8,0.6-0.9,1.7-0.4,2.4c6.2,8.2,9.3,16.4,9.3,24.3C72.7,54.8,62.5,65,50,65S27.3,54.8,27.3,42.2c0-6.2,2-15.9,11.8-27.4
		C44.9,7.8,51,3.5,51,3.4c0.8-0.6,1-1.7,0.4-2.4c-0.6-0.8-1.7-1-2.4-0.4c-0.3,0.2-6.4,4.6-12.6,11.9c-8.3,9.8-12.7,20.1-12.7,29.8
		C23.8,56.7,35.5,68.5,50,68.5z"/>
	<path fill="#2B3E50" d="M59.2,12.8c0.3,0.4,0.8,0.6,1.3,0.6c0.4,0,0.8-0.2,1.2-0.5c0.7-0.7,0.8-1.8,0.1-2.5
		c-1.3-1.4-2.7-2.9-4.2-4.2c-0.7-0.7-1.8-0.6-2.5,0.1c-0.7,0.7-0.6,1.8,0.1,2.5C56.6,10.1,57.9,11.4,59.2,12.8z"/>
	<path fill="#2B3E50" d="M49,25.1c-0.1,0.1-3.4,2.4-6.6,6.3C38,36.5,35.7,42,35.7,47.2c0,7.9,6.4,14.3,14.3,14.3s14.3-6.4,14.3-14.3
		c0-1-0.8-1.7-1.7-1.7s-1.7,0.8-1.7,1.7C60.8,53.1,56,58,50,58s-10.8-4.9-10.8-10.8c0-8.7,8-16.1,10.8-18.4c0.6,0.5,1.3,1.1,2.1,1.9
		c0.7,0.7,1.8,0.6,2.5-0.1c0.7-0.7,0.6-1.8-0.1-2.5c-2-1.9-3.5-3-3.5-3C50.4,24.6,49.6,24.6,49,25.1z"/>
	<path fill="#2B3E50" d="M60.7,35.5c-0.4-0.6-0.8-1.3-1.3-1.9c-0.6-0.8-1.7-1-2.4-0.4c-0.8,0.6-1,1.7-0.4,2.4
		c0.4,0.6,0.8,1.1,1.2,1.7c0.5,0.8,0.9,1.6,1.3,2.4c0.3,0.6,0.9,1,1.6,1c0.3,0,0.5-0.1,0.8-0.2c0.9-0.4,1.2-1.5,0.8-2.3
		C61.7,37.3,61.2,36.4,60.7,35.5z"/>
</g>
</svg>
