<?xml version="1.0" encoding="utf-8"?>
<!-- Generator: Adobe Illustrator 18.1.1, SVG Export Plug-In . SVG Version: 6.00 Build 0)  -->
<svg version="1.1" id="Capa_1" xmlns="http://www.w3.org/2000/svg" xmlns:xlink="http://www.w3.org/1999/xlink" x="0px" y="0px"
	 viewBox="0 0 60 60" enable-background="new 0 0 60 60" xml:space="preserve">
<g>
	<path fill="#2B3E50" d="M30,60C13.5,60,0,46.5,0,30S13.5,0,30,0s30,13.4,30,30S46.5,60,30,60z M30,1C14,1,1,14,1,30
		c0,16,13,29,29,29c16,0,29-13,29-29C59,14,46,1,30,1z"/>
</g>
<g>
	<g>
		<path fill="#2B3E50" d="M30,6.9c-8.6,0-15,6.4-15,15c0,2.3,0.2,4.6,1,6.9c0.5-0.2,1.2-0.4,1.7-0.6c-0.8-2.2-1.2-4.3-1.2-6.3
			c0-7.3,6.1-13.4,13.4-13.4s13.4,6.1,13.4,13.4c0,3.6-1.2,9.5-7,16.2l-1.2,1.2c-0.6,0.3-0.6,0.9-0.3,1.5s-0.2,1.1,0.5,0.8l2.3-2.3
			c4.9-6.1,7.3-11.9,7.3-17.4C45,13.3,38.6,6.9,30,6.9z"/>
	</g>
	<g>
		<path fill="#2B3E50" d="M23.1,39.8c-1.9-1.7-5.1-6-6.1-8.2c0.5-0.2,1.2-0.5,1.7-0.7c0.9,2.1,3.6,5.6,5.6,7.6"/>
	</g>
	<ellipse fill="#2B3E50" cx="32.5" cy="46" rx="0.9" ry="0.9"/>
	<ellipse fill="#2B3E50" cx="28.2" cy="46" rx="0.9" ry="0.9"/>
	<ellipse fill="#2B3E50" cx="22.7" cy="44.5" rx="0.9" ry="0.9"/>
	<ellipse fill="#2B3E50" cx="17.8" cy="31.4" rx="0.9" ry="0.9"/>
	<ellipse fill="#2B3E50" cx="16.9" cy="28.4" rx="0.9" ry="0.9"/>
	<path fill="#2B3E50" d="M37.4,37.2l-0.3-8.9c0-0.6-0.3-0.9-0.9-0.9c-0.3,0-0.6,1.9-0.6,2.5l0.3,9.5L37.4,37.2z"/>
	<path fill="#2B3E50" d="M43.2,26.8L38,19.5c-0.3-0.3,0-0.6-0.6-0.3c-0.3,0.3,0.3,2.8,0.3,3.1l5.2,7L43.2,26.8z"/>
	<path fill="#2B3E50" d="M42.5,16.7L34,13.3c-0.6-0.3-0.9,0-1.2,0.3c-0.3,0.6,2.2,1.9,2.8,1.9l8.3,3.4L42.5,16.7z"/>
	<path fill="#2B3E50" d="M32.2,8.1l-7.4,6.2c0,0,1-0.4,1.3-0.1c0.3,0.3,2.5-0.9,2.8-1.2l5-4.5L32.2,8.1z"/>
	<path fill="#2B3E50" d="M38.6,46.3l-5.2-0.6c-0.3,0-0.3,0,0,0.6s0.3,1.2,0.6,1.2l5.2,0.6L38.6,46.3z"/>
	<path fill="#2B3E50" d="M24.2,49.7l-0.6-4.6c0-0.3-0.3-0.9-0.9-0.9c-0.3,0-0.6,0.3-0.6,0.6l0.8,5.6L24.2,49.7z"/>
	<path fill="#2B3E50" d="M16.9,24.6l6.4,4.2c0.3,0.3,0.6,0.6,0.9,0.3s-0.6-2.2-0.9-2.5L16,22.2L16.9,24.6z"/>
	<path fill="#2B3E50" d="M20,34.2l10,2.9c0.3,0.3-0.3-0.6,0-0.9s-1.9-0.9-2.2-1.2l-8.6-2.8L20,34.2z"/>
	<path fill="#2B3E50" d="M19.6,13.3l2.2,6.1c0,0.3,0.6,0.3,0.9,0c0.3,0,0.3-1.5,0.3-1.9l-2.2-6L19.6,13.3z"/>
	<path fill="#2B3E50" d="M25.3,39.5L25.3,39.5l-1.6-1.4c-0.3-0.3-0.9-0.2-1.2,0.1s-0.2,0.9,0.1,1.2l1.6,1.4l-0.5,0.9L21.2,45
		c-0.3,0.3-0.2,0.9,0.1,1.2c0.3,0.3,0.9,0.2,1.2-0.1l3-4.2C26.4,40.9,26.3,40,25.3,39.5z"/>
	<path fill="#2B3E50" d="M30,12.1L30,12.1L30,12.1c-4.6,0-8.6,4.6-8.6,9.8c0,3.6,1.2,7.3,3.9,10.7c1.9,2.8,3.9,4.2,3.9,4.2
		c0.3,0.3,0.3,0.3,0.6,0.3s0.3,0,0.6-0.3c0,0,2.2-1.5,3.9-4.2c2.5-3.6,3.9-7.3,3.9-10.7C38.6,16.7,34.6,12.1,30,12.1z M33.7,31.4
		c-1.5,2.2-3.1,3.6-3.1,3.6c-0.2,0.3-0.2,0.3-0.5,0.3s-0.3,0-0.6-0.3c0,0-1.5-1.5-3.4-3.6c-2.2-3.1-3.4-6.1-3.4-9.2
		c0-4.6,3.1-8.3,7-8.3l0,0l0,0c3.9,0,7,3.6,7,8.3C37.1,25.3,36.1,28.3,33.7,31.4z"/>
	<path fill="#2B3E50" d="M37.7,46c0.6,0.6,1.2,1.9,1.5,2.5l0.9,2.5l-2.5-1c-0.6-0.3-1.9-0.9-2.5-1.5l-2.1-2.7l-1.6,0.7l2.9,3.3
		c0.6,0.6,2.2,1.5,3.1,1.9l2.8,1.2c0.9,0.3,1.2,0,1.5,0c0.3-0.3,0.6-0.6,0.6-1.2c0-0.3,0-0.6-0.3-0.9l-1.2-2.8
		c-0.3-0.9-1.2-2.2-1.9-3.1l-3.4-3.4L35,43.3L37.7,46z"/>
	<path fill="#2B3E50" d="M22.1,43.9c-0.6,0.6-2.5,3.1-2.8,3.9l-1.2,2.8c-0.3,0.9,0,1.2,0,1.5c0.3,0.3,0.6,0.6,1.2,0.6
		c0.3,0,0.6,0,0.9-0.3l2.8-1.2c0.9-0.3,2.2-1.2,3.1-1.9l3.1-3.1L28,45l-3.1,3.1c-0.6,0.6-1.9,1.5-2.5,1.9l-2.5,0.9l0.9-2.5
		c0.3-0.6,1.9-2.5,2.5-3.1L22.1,43.9z"/>
	<path fill="#2B3E50" d="M30.1,35.5c-3.2,0-5.7,2.5-5.7,5.7s2.5,5.7,5.7,5.7s5.7-2.5,5.7-5.7S33.3,35.5,30.1,35.5z M30.1,45.1
		c-2.2,0-3.9-1.8-3.9-3.9c0-2.2,1.8-3.9,3.9-3.9s3.9,1.8,3.9,3.9C34.1,43.3,32.3,45.1,30.1,45.1z"/>
	<path fill="#2B3E50" d="M30.4,41.5c-0.1,0.1-0.2,0.1-0.3,0.1c-0.2,0-0.5-0.2-0.5-0.5c0-0.2,0.1-0.2,0.1-0.3
		c0.3-0.4,0.3-0.9-0.1-1.2c-0.4-0.3-0.9-0.3-1.2,0.1c-0.4,0.4-0.5,0.9-0.5,1.5c0,1.2,1,2.2,2.2,2.2c0.5,0,1.1-0.2,1.5-0.5
		c0.4-0.3,0.4-0.8,0.1-1.2C31.4,41.2,30.8,41.2,30.4,41.5z"/>
</g>
</svg>
