<?xml version="1.0" encoding="utf-8"?>
<!-- Generator: Adobe Illustrator 18.1.1, SVG Export Plug-In . SVG Version: 6.00 Build 0)  -->
<svg version="1.1" id="Calque_1" xmlns="http://www.w3.org/2000/svg" xmlns:xlink="http://www.w3.org/1999/xlink" x="0px" y="0px"
	 viewBox="0 0 100 100" enable-background="new 0 0 100 100" xml:space="preserve">
<g>
	<g>
		<path fill="#2B3E50" d="M50.1,0.5c-18.4,0-32.2,13.8-32.2,32.2c0,5,0.5,9.9,2.2,14.9c1.2-0.3,2.7-0.8,3.6-1.3
			c-1.7-4.6-2.7-9.3-2.7-13.6c0-15.8,13.1-28.9,28.9-28.9s28.9,13.1,28.9,28.9c0,7.8-2.7,20.4-15.1,34.8L61,70.2
			c-1.3,0.7-1.3,2-0.7,3.3s-0.3,2.3,1,1.7l5-5c10.4-13.1,15.8-25.5,15.8-37.5C82.2,14.3,68.5,0.5,50.1,0.5z"/>
	</g>
	<g>
		<path fill="#2B3E50" d="M35.2,71.2C31,67.5,24.2,58.2,22.1,53.6c1-0.5,2.7-1,3.6-1.5c2,4.5,7.6,12.1,12.1,16.4"/>
	</g>
	<ellipse fill="#2B3E50" cx="55.4" cy="84.6" rx="2" ry="2"/>
	<ellipse fill="#2B3E50" cx="46.1" cy="84.6" rx="2" ry="2"/>
	<ellipse fill="#2B3E50" cx="34.3" cy="81.3" rx="2" ry="2"/>
	<ellipse fill="#2B3E50" cx="23.9" cy="53.1" rx="2" ry="2"/>
	<ellipse fill="#2B3E50" cx="21.9" cy="46.8" rx="2" ry="2"/>
	<path fill="#2B3E50" d="M65.8,65.5l-0.7-19.1c0-1.3-0.7-2-2-2c-0.7,0-1.3,4-1.3,5.3l0.7,20.4L65.8,65.5z"/>
	<path fill="#2B3E50" d="M78.3,43.3L67.2,27.6c-0.7-0.7,0-1.3-1.3-0.7c-0.7,0.7,0.7,6,0.7,6.6l11.1,15.1L78.3,43.3z"/>
	<path fill="#2B3E50" d="M76.9,21.6l-18.4-7.3c-1.3-0.7-2,0-2.7,0.7c-0.7,1.3,4.6,4,6,4l17.7,7.3L76.9,21.6z"/>
	<path fill="#2B3E50" d="M54.7,3.2L38.8,16.4c0,0,2.2-0.8,2.8-0.2s5.3-2,6-2.7L58.4,4L54.7,3.2z"/>
	<path fill="#2B3E50" d="M68.5,85.3l-11.1-1.3c-0.7,0-0.7,0,0,1.3c0.7,1.3,0.7,2.7,1.3,2.7l11.1,1.3L68.5,85.3z"/>
	<path fill="#2B3E50" d="M37.6,92.4l-1.3-9.8c0-0.7-0.7-2-2-2c-0.7,0-1.3,0.7-1.3,1.3l1.7,11.9L37.6,92.4z"/>
	<path fill="#2B3E50" d="M21.9,38.7l13.8,9.1c0.7,0.7,1.3,1.3,2,0.7c0.7-0.7-1.3-4.6-2-5.3l-15.8-9.8L21.9,38.7z"/>
	<path fill="#2B3E50" d="M28.5,59.2l21.6,6.3c0.7,0.7-0.7-1.3,0-2s-4-2-4.6-2.7l-18.4-6L28.5,59.2z"/>
	<path fill="#2B3E50" d="M27.7,14.3l4.6,13.1c0,0.7,1.3,0.7,2,0c0.7,0,0.7-3.3,0.7-4l-4.8-12.9L27.7,14.3z"/>
	<path fill="#2B3E50" d="M40,70.5L40,70.5l-3.5-3c-0.7-0.7-2-0.5-2.7,0.2c-0.7,0.7-0.5,2,0.2,2.7l3.5,3l-1.2,2l-5.3,7
		c-0.7,0.7-0.5,2,0.2,2.7c0.7,0.7,2,0.5,2.7-0.2l6.5-9.1C42.3,73.6,42.1,71.7,40,70.5z"/>
	<path fill="#2B3E50" d="M50.1,11.8L50.1,11.8L50.1,11.8c-9.8,0-18.4,9.8-18.4,21.1c0,7.8,2.7,15.8,8.5,23c4,6,8.5,9.1,8.5,9.1
		c0.7,0.7,0.7,0.7,1.3,0.7s0.7,0,1.3-0.7c0,0,4.6-3.3,8.5-9.1c5.3-7.8,8.5-15.8,8.5-23C68.5,21.6,59.9,11.8,50.1,11.8z M57.9,53.1
		c-3.3,4.6-6.6,7.8-6.6,7.8c-0.5,0.7-0.5,0.7-1.2,0.7s-0.7,0-1.3-0.7c0,0-3.3-3.3-7.3-7.8c-4.6-6.6-7.3-13.1-7.3-19.7
		c0-9.8,6.6-17.7,15.1-17.7l0,0l0,0c8.5,0,15.1,7.8,15.1,17.7C65.2,40,63.2,46.5,57.9,53.1z"/>
	<path fill="#2B3E50" d="M66.5,84.6c1.3,1.3,2.7,4,3.3,5.3l2,5.3L66.5,93c-1.3-0.7-4-2-5.3-3.3l-4.5-5.8l-3.5,1.5l6.1,7.1
		c1.3,1.3,4.6,3.3,6.6,4l6,2.7c2,0.7,2.7,0,3.3,0c0.7-0.7,1.3-1.3,1.3-2.7c0-0.7,0-1.3-0.7-2l-2.7-6c-0.7-2-2.7-4.6-4-6.6L62,74.6
		l-1.3,4L66.5,84.6z"/>
	<path fill="#2B3E50" d="M33,79.9c-1.3,1.3-5.3,6.6-6,8.5l-2.7,6c-0.7,2,0,2.7,0,3.3C25,98.4,25.7,99,27,99c0.7,0,1.3,0,2-0.7l6-2.7
		c2-0.7,4.6-2.7,6.6-4l6.6-6.6l-2.7-2.7L39,89.1c-1.3,1.3-4,3.3-5.3,4l-5.3,2l2-5.3c0.7-1.3,4-5.3,5.3-6.6L33,79.9z"/>
	<path fill="#2B3E50" d="M50.2,61.9c-6.8,0-12.3,5.5-12.3,12.3s5.5,12.3,12.3,12.3s12.3-5.5,12.3-12.3S57,61.9,50.2,61.9z
		 M50.2,82.6c-4.6,0-8.5-3.8-8.5-8.5s3.8-8.5,8.5-8.5s8.5,3.8,8.5,8.5S54.9,82.6,50.2,82.6z"/>
	<path fill="#2B3E50" d="M50.9,74.8C50.7,75,50.6,75,50.2,75c-0.5,0-1-0.5-1-1c0-0.3,0.2-0.5,0.2-0.7c0.7-0.8,0.7-2-0.2-2.7
		c-0.8-0.7-2-0.7-2.7,0.2c-0.8,0.8-1.2,2-1.2,3.2c0,2.7,2.2,4.6,4.6,4.6c1.2,0,2.3-0.5,3.2-1.2c0.8-0.7,0.8-1.8,0.2-2.7
		C52.9,74.3,51.7,74.1,50.9,74.8z"/>
</g>
</svg>
