<?xml version="1.0" encoding="utf-8"?>
<!-- Generator: Adobe Illustrator 18.1.1, SVG Export Plug-In . SVG Version: 6.00 Build 0)  -->
<svg version="1.1" id="Calque_1" xmlns="http://www.w3.org/2000/svg" xmlns:xlink="http://www.w3.org/1999/xlink" x="0px" y="0px"
	 viewBox="0 0 60 60" enable-background="new 0 0 60 60" xml:space="preserve">
<g>
	<g>
		<path fill="#FFFFFF" d="M2.4,23.9c-1.2,0-2.1,0.9-2.1,2.1v8.2c0,1.2,0.9,2.1,2.1,2.1h3.8c0.6,2.2,1.4,4.3,2.6,6.2l-2.7,2.7
			c-0.8,0.8-0.8,2.1,0,3l5.8,5.8c0.8,0.8,2.1,0.8,3,0l2.7-2.7c2,1.1,4,2,6.2,2.6v3.8c0,1.2,0.9,2.1,2.1,2.1h8.2
			c1.2,0,2.1-0.9,2.1-2.1v-3.9c2.2-0.6,4.2-1.4,6.2-2.6l2.8,2.8c0.8,0.8,2.1,0.8,3,0l5.8-5.8c0.8-0.8,0.8-2.1,0-3l-2.7-2.8
			c1.1-2,2-4,2.6-6.2h3.9c1.2,0,2.1-0.9,2.1-2.1v-8.2c0-1.2-0.9-2.1-2.1-2.1h-3.9c-0.6-2.2-1.4-4.2-2.6-6.2l2.8-2.8
			c0.8-0.8,0.8-2.1,0-3l-5.8-5.7c-0.8-0.8-2.1-0.8-3,0l-2.7,2.7c-2-1.1-4-2-6.2-2.6V2.4c0-1.2-0.9-2.1-2.1-2.1h-8.2
			c-1.2,0-2.1,0.9-2.1,2.1v3.8c-2.2,0.6-4.3,1.4-6.2,2.6l-2.7-2.7c-0.8-0.8-2.1-0.8-3,0l-5.8,5.8c-0.8,0.8-0.8,2.1,0,3l2.7,2.7
			c-1.2,2-2,4-2.6,6.3L2.4,23.9L2.4,23.9z M9.9,26.3c0.5-2.9,1.6-5.5,3.2-7.8c0.6-0.8,0.5-2-0.3-2.7l-2.4-2.4l2.8-2.8l2.4,2.4
			c0.7,0.7,1.8,0.8,2.7,0.3c2.4-1.6,5-2.7,7.8-3.2c1-0.2,1.7-1,1.7-2V4.6h4V8c0,1,0.7,1.9,1.7,2c2.8,0.5,5.4,1.6,7.8,3.2
			c0.8,0.6,2,0.5,2.7-0.3l2.5-2.5l2.8,2.8L47,15.8c-0.7,0.7-0.8,1.8-0.3,2.7c1.6,2.4,2.7,5,3.2,7.8c0.2,1,1.1,1.7,2,1.7h3.5v4H52
			c-1,0-1.9,0.7-2,1.7c-0.5,2.8-1.6,5.4-3.2,7.8c-0.6,0.8-0.5,2,0.3,2.7l2.5,2.5l-2.8,2.8L44.2,47c-0.7-0.7-1.8-0.8-2.7-0.3
			c-2.4,1.6-5,2.7-7.8,3.2c-1,0.2-1.7,1.1-1.7,2v3.4h-4V52c0-1-0.7-1.9-1.7-2c-2.9-0.5-5.5-1.6-7.8-3.2c-0.8-0.6-2-0.5-2.7,0.3
			l-2.4,2.4l-2.8-2.7l2.4-2.4c0.7-0.7,0.8-1.8,0.3-2.7c-1.6-2.4-2.7-5-3.3-7.8c-0.2-1-1-1.7-2-1.7H4.5v-4h3.4
			C8.9,28.1,9.7,27.3,9.9,26.3z"/>
		<path fill="#FFFFFF" d="M30,44.8c7.9,0,14.4-6.4,14.4-14.4S37.9,16,30,16s-14.4,6.4-14.4,14.4S22,44.8,30,44.8z M30,20.2
			c5.6,0,10.2,4.6,10.2,10.2c0,5.6-4.6,10.2-10.2,10.2S19.8,36,19.8,30.4S24.3,20.2,30,20.2z"/>
	</g>
</g>
</svg>
