<?xml version="1.0" encoding="utf-8"?>
<!-- Generator: Adobe Illustrator 18.1.1, SVG Export Plug-In . SVG Version: 6.00 Build 0)  -->
<svg version="1.1" id="Capa_1" xmlns="http://www.w3.org/2000/svg" xmlns:xlink="http://www.w3.org/1999/xlink" x="0px" y="0px"
	 viewBox="0 0 60 60" enable-background="new 0 0 60 60" xml:space="preserve">
<g>
	<path fill="#2B3E50" d="M30,60C13.5,60,0,46.5,0,30S13.5,0,30,0s30,13.4,30,30S46.5,60,30,60z M30,1C14,1,1,14,1,30
		c0,16,13,29,29,29c16,0,29-13,29-29C59,14,46,1,30,1z"/>
</g>
<g>
	<path fill="#2B3E50" d="M36.8,29.5c0.2,0.2,0.4,0.3,0.6,0.3c0.2,0,0.3-0.1,0.5-0.2c0.4-0.3,0.4-0.8,0.2-1.1l-2.7-3.6
		c-0.3-0.4-0.8-0.4-1.1-0.2c-0.4,0.3-0.4,0.8-0.2,1.1L36.8,29.5z"/>
	<path fill="#2B3E50" d="M52.3,40.2h-0.6v-2.4c0-0.4-0.4-0.8-0.8-0.8s-0.8,0.4-0.8,0.8v1.3L31.2,14.2l1.2-1.5
		c0.3-0.4,0.2-0.9-0.2-1.1c-0.4-0.3-0.9-0.2-1.1,0.2l-0.9,1.2l-1-1.4c-0.3-0.4-0.8-0.4-1.1-0.2c-0.4,0.3-0.4,0.8-0.2,1.1l1.3,1.7
		L10.1,39.3v-1.5c0-0.4-0.4-0.8-0.8-0.8s-0.8,0.4-0.8,0.8v2.4H7.7c-0.4,0-0.8,0.4-0.8,0.8s0.4,0.8,0.8,0.8h44.7
		c0.4,0,0.8-0.4,0.8-0.8S52.8,40.2,52.3,40.2z M48.9,40.2h-2l-6.6-8.7c-0.3-0.4-0.8-0.4-1.1-0.2c-0.4,0.3-0.4,0.8-0.2,1.1l5.8,7.7
		h-14V21.8l1.1,1.4c0.2,0.2,0.4,0.3,0.6,0.3c0.2,0,0.3-0.1,0.5-0.2c0.4-0.3,0.4-0.8,0.2-1.1l-2.5-3.3c0,0,0,0,0,0c0,0,0,0,0,0
		c0,0,0,0,0,0c0,0,0,0,0,0c0,0,0,0,0,0c0,0,0,0,0,0c0,0,0,0,0,0c0,0,0,0,0,0c0,0,0,0,0,0c0,0,0,0,0,0c0,0,0,0,0,0c0,0,0,0,0,0
		c0,0,0,0,0,0c0,0,0,0,0,0c0,0,0,0,0,0c0,0,0,0,0,0c0,0,0,0,0,0c0,0,0,0,0,0c0,0,0,0,0,0c0,0,0,0,0,0c0,0,0,0,0,0c0,0,0,0,0,0
		c0,0,0,0,0,0c0,0,0,0,0,0c0,0,0,0,0,0c0,0,0,0,0,0c0,0,0,0,0,0c0,0,0,0,0,0c0,0,0,0,0,0c0,0,0,0,0,0c0,0,0,0,0,0c0,0,0,0,0,0
		c0,0,0,0,0,0c0,0,0,0,0,0c0,0,0,0,0,0c0,0,0,0,0,0c0,0,0,0,0,0c0,0,0,0,0,0c0,0,0,0,0,0c0,0,0,0,0,0L13.3,40.2h-1.9l18.8-24.7
		L48.9,40.2z M29.3,40.2h-14l14-18.4V40.2z"/>
</g>
</svg>
