<?xml version="1.0" encoding="utf-8"?>
<!-- Generator: Adobe Illustrator 18.1.1, SVG Export Plug-In . SVG Version: 6.00 Build 0)  -->
<svg version="1.1" id="Calque_1" xmlns="http://www.w3.org/2000/svg" xmlns:xlink="http://www.w3.org/1999/xlink" x="0px" y="0px"
	 viewBox="0 0 100 100" enable-background="new 0 0 100 100" xml:space="preserve">
<g>
	<path fill="#2B3E50" d="M64.7,51.1c0.3,0.4,0.9,0.7,1.4,0.7c0.4,0,0.7-0.1,1-0.4c0.8-0.6,0.9-1.7,0.3-2.4l-5.9-7.8
		c-0.6-0.8-1.7-0.9-2.4-0.3c-0.8,0.6-0.9,1.7-0.3,2.4L64.7,51.1z"/>
	<path fill="#2B3E50" d="M98.1,74.1h-1.3v-5.2c0-1-0.8-1.7-1.7-1.7s-1.7,0.8-1.7,1.7v2.8L52.5,18l2.5-3.3c0.6-0.8,0.4-1.8-0.3-2.4
		c-0.8-0.6-1.8-0.4-2.4,0.3l-1.9,2.5l-2.2-2.9c-0.6-0.8-1.7-0.9-2.4-0.3c-0.8,0.6-0.9,1.7-0.3,2.4l2.8,3.7L7,72.2v-3.2
		c0-1-0.8-1.7-1.7-1.7S3.6,68,3.6,68.9v5.2H1.9c-1,0-1.7,0.8-1.7,1.7s0.8,1.7,1.7,1.7h96.3c1,0,1.7-0.8,1.7-1.7S99.1,74.1,98.1,74.1
		z M90.9,74.1h-4.4L72.3,55.5c-0.6-0.8-1.7-0.9-2.4-0.3c-0.8,0.6-0.9,1.7-0.3,2.4l12.6,16.6H52V34.4l2.3,3c0.3,0.4,0.9,0.7,1.4,0.7
		c0.4,0,0.7-0.1,1-0.4c0.8-0.6,0.9-1.7,0.3-2.4l-5.4-7.1c0,0,0,0,0,0c0,0,0-0.1-0.1-0.1c0,0,0,0-0.1-0.1c0,0,0,0-0.1-0.1
		c0,0-0.1,0-0.1-0.1c0,0,0,0,0,0c0,0,0,0,0,0c0,0-0.1,0-0.1-0.1c0,0,0,0,0,0c0,0-0.1,0-0.1,0c0,0,0,0-0.1,0c0,0-0.1,0-0.1,0
		c0,0-0.1,0-0.1,0c0,0,0,0-0.1,0c0,0-0.1,0-0.1,0c0,0,0,0-0.1,0c0,0-0.1,0-0.1,0c0,0,0,0-0.1,0c0,0-0.1,0-0.1,0c0,0-0.1,0-0.1,0
		c0,0-0.1,0-0.1,0c0,0-0.1,0-0.1,0c0,0,0,0-0.1,0c0,0-0.1,0-0.1,0c0,0,0,0-0.1,0c0,0-0.1,0-0.1,0c0,0,0,0-0.1,0c0,0-0.1,0-0.1,0
		c0,0-0.1,0-0.1,0c0,0,0,0-0.1,0c0,0-0.1,0-0.1,0c0,0,0,0-0.1,0c0,0-0.1,0-0.1,0.1c0,0,0,0,0,0c0,0,0,0,0,0c0,0-0.1,0-0.1,0.1
		c0,0,0,0-0.1,0.1c0,0,0,0-0.1,0.1c0,0,0,0.1-0.1,0.1c0,0,0,0,0,0L14,74.1H9.9l40.5-53.2L90.9,74.1z M48.5,74.1H18.3l30.2-39.7V74.1
		z"/>
</g>
</svg>
